STARTFONT 2.3
FONT -FontForge-Fredoka One-Book-R-Normal--9-90-72-72-P-51-ISO10646-1
SIZE 9 72 72  4
FONTBOUNDINGBOX 13 12 -2 -3
COMMENT "Generated by fontforge, http://fontforge.sourceforge.net"
COMMENT "Copyright (c) 2011 Milena B Brandao (milenabbrandao@gmail.com), with Reserved Font Name "Fredoka""
STARTPROPERTIES 40
FOUNDRY "FontForge"
FAMILY_NAME "Fredoka One"
WEIGHT_NAME "Book"
SLANT "R"
SETWIDTH_NAME "Normal"
ADD_STYLE_NAME ""
PIXEL_SIZE 9
POINT_SIZE 90
RESOLUTION_X 72
RESOLUTION_Y 72
SPACING "P"
AVERAGE_WIDTH 51
CHARSET_REGISTRY "ISO10646"
CHARSET_ENCODING "1"
FONTNAME_REGISTRY ""
CHARSET_COLLECTIONS "ISO10646-1"
BITS_PER_PIXEL 4
FONT_NAME "FredokaOne-Regular"
FACE_NAME "Fredoka One"
COPYRIGHT "Copyright (c) 2011 Milena B Brandao (milenabbrandao@gmail.com), with Reserved Font Name "Fredoka""
FONT_VERSION "1.001"
FONT_ASCENT 7
FONT_DESCENT 2
UNDERLINE_POSITION -1
UNDERLINE_THICKNESS 1
X_HEIGHT 4
CAP_HEIGHT 6
RAW_ASCENT 800
RAW_DESCENT 200
NORM_SPACE 2
RELATIVE_WEIGHT 40
RELATIVE_SETWIDTH 50
SUPERSCRIPT_X 0
SUPERSCRIPT_Y 4
SUPERSCRIPT_SIZE 5
SUBSCRIPT_X 0
SUBSCRIPT_Y 1
SUBSCRIPT_SIZE 5
AVG_LOWERCASE_WIDTH 49
AVG_UPPERCASE_WIDTH 62
ENDPROPERTIES
CHARS 235
STARTCHAR space
ENCODING 32
SWIDTH 253 0
DWIDTH 2 0
BBX 1 1 0 0
BITMAP
00
ENDCHAR
STARTCHAR exclam
ENCODING 33
SWIDTH 267 0
DWIDTH 2 0
BBX 2 7 0 0
BITMAP
48
9F
9F
9F
58
58
8E
ENDCHAR
STARTCHAR quotedbl
ENCODING 34
SWIDTH 429 0
DWIDTH 4 0
BBX 4 4 0 3
BITMAP
5464
B9B9
9797
3232
ENDCHAR
STARTCHAR numbersign
ENCODING 35
SWIDTH 749 0
DWIDTH 7 0
BBX 7 7 0 0
BITMAP
00823700
02F28C00
5EFDEE70
2AD5E920
8DEBFC20
6EB9F810
0D44D000
ENDCHAR
STARTCHAR dollar
ENCODING 36
SWIDTH 475 0
DWIDTH 4 0
BBX 4 8 0 -1
BITMAP
0590
2CE5
9C76
6FB4
24AE
ADCD
19C2
0360
ENDCHAR
STARTCHAR percent
ENCODING 37
SWIDTH 838 0
DWIDTH 8 0
BBX 8 8 0 -1
BITMAP
18701B00
8BD48600
8AC6C000
2A995420
002BADE1
00A4C4D2
02B06EB0
00100000
ENDCHAR
STARTCHAR ampersand
ENCODING 38
SWIDTH 748 0
DWIDTH 7 0
BBX 7 8 0 -1
BITMAP
07DC3000
1F9DA000
0ECF6000
1EF81400
9FED9F10
BE8FFD20
4EFEBF70
00100000
ENDCHAR
STARTCHAR quotesingle
ENCODING 39
SWIDTH 208 0
DWIDTH 2 0
BBX 2 4 0 3
BITMAP
54
B9
97
32
ENDCHAR
STARTCHAR parenleft
ENCODING 40
SWIDTH 384 0
DWIDTH 3 0
BBX 4 9 0 -2
BITMAP
06E4
2F60
7D00
AB00
BA00
AA00
7D00
2F50
07F4
ENDCHAR
STARTCHAR parenright
ENCODING 41
SWIDTH 384 0
DWIDTH 3 0
BBX 4 9 0 -2
BITMAP
BB10
2D80
06D0
04F1
03F2
03F1
06E0
1C90
CC10
ENDCHAR
STARTCHAR asterisk
ENCODING 42
SWIDTH 503 0
DWIDTH 5 0
BBX 5 5 0 2
BITMAP
049000
8CFA20
8FFD30
4FEC00
052300
ENDCHAR
STARTCHAR plus
ENCODING 43
SWIDTH 527 0
DWIDTH 5 0
BBX 5 5 0 0
BITMAP
028000
17F400
BFFF70
27F510
029000
ENDCHAR
STARTCHAR comma
ENCODING 44
SWIDTH 238 0
DWIDTH 2 0
BBX 2 4 0 -2
BITMAP
67
AD
69
40
ENDCHAR
STARTCHAR hyphen
ENCODING 45
SWIDTH 433 0
DWIDTH 4 0
BBX 4 2 0 1
BITMAP
7AA6
8BB6
ENDCHAR
STARTCHAR period
ENCODING 46
SWIDTH 237 0
DWIDTH 2 0
BBX 2 2 0 0
BITMAP
68
AC
ENDCHAR
STARTCHAR slash
ENCODING 47
SWIDTH 526 0
DWIDTH 5 0
BBX 5 8 0 -1
BITMAP
000D60
006F40
00DC00
05F400
0CC000
4F5000
BD0000
430000
ENDCHAR
STARTCHAR zero
ENCODING 48
SWIDTH 608 0
DWIDTH 5 0
BBX 6 8 0 -1
BITMAP
04A810
4FEFB0
9E18F2
BC05F3
BD06F2
7F9DD0
1BFE50
001000
ENDCHAR
STARTCHAR one
ENCODING 49
SWIDTH 407 0
DWIDTH 4 0
BBX 4 7 0 0
BITMAP
0182
2DF4
BFF4
27F4
04F4
04F4
03F3
ENDCHAR
STARTCHAR two
ENCODING 50
SWIDTH 609 0
DWIDTH 5 0
BBX 6 7 0 0
BITMAP
05A710
6FEFA0
BD09F0
552DD0
07EE40
8FFA82
9FFFF4
ENDCHAR
STARTCHAR three
ENCODING 51
SWIDTH 608 0
DWIDTH 5 0
BBX 6 8 0 -1
BITMAP
06A810
5FEFC0
394BF1
00EFA0
453AF2
AF8CF2
2CFE60
001000
ENDCHAR
STARTCHAR four
ENCODING 52
SWIDTH 592 0
DWIDTH 5 0
BBX 5 7 0 0
BITMAP
083570
3F6AF0
7F3AF0
BF6CF0
CFFFF0
011AF0
0008D0
ENDCHAR
STARTCHAR five
ENCODING 53
SWIDTH 530 0
DWIDTH 5 0
BBX 5 8 0 -1
BITMAP
299920
7FFF50
9F5100
BFFD10
476F70
9B9F60
6EFB00
001000
ENDCHAR
STARTCHAR six
ENCODING 54
SWIDTH 560 0
DWIDTH 5 0
BBX 5 8 0 -1
BITMAP
005840
0AFF80
5F8100
AFDB20
BF8EA0
9E6EB0
2CFD30
001000
ENDCHAR
STARTCHAR seven
ENCODING 55
SWIDTH 561 0
DWIDTH 5 0
BBX 5 7 0 0
BITMAP
699970
BFFFC0
004F70
01DD10
07F500
0CD000
0D9000
ENDCHAR
STARTCHAR eight
ENCODING 56
SWIDTH 582 0
DWIDTH 5 0
BBX 5 8 0 -1
BITMAP
06A810
5FDF90
8F5EB0
4FFF70
AE5CE0
AF7DD0
2CFE40
001000
ENDCHAR
STARTCHAR nine
ENCODING 57
SWIDTH 560 0
DWIDTH 5 0
BBX 5 7 0 0
BITMAP
07A600
8FCF70
BE2EB0
5FFFB0
027F80
49EE10
8FC300
ENDCHAR
STARTCHAR colon
ENCODING 58
SWIDTH 238 0
DWIDTH 2 0
BBX 2 5 0 0
BITMAP
56
BD
11
68
AC
ENDCHAR
STARTCHAR semicolon
ENCODING 59
SWIDTH 237 0
DWIDTH 2 0
BBX 2 7 0 -2
BITMAP
56
BD
11
68
AD
69
40
ENDCHAR
STARTCHAR less
ENCODING 60
SWIDTH 627 0
DWIDTH 6 0
BBX 6 7 0 0
BITMAP
000010
0018F6
05DF91
9FC300
7FE500
02BFC2
0005D4
ENDCHAR
STARTCHAR equal
ENCODING 61
SWIDTH 478 0
DWIDTH 4 0
BBX 4 4 0 0
BITMAP
6AA9
7BBA
7BBA
6999
ENDCHAR
STARTCHAR greater
ENCODING 62
SWIDTH 627 0
DWIDTH 6 0
BBX 6 7 0 0
BITMAP
100000
BD4000
3CFA20
006EF4
019FD3
5EF810
AA2000
ENDCHAR
STARTCHAR question
ENCODING 63
SWIDTH 512 0
DWIDTH 5 0
BBX 5 7 0 0
BITMAP
19B500
BECF30
543F50
04FC10
039000
049000
07E100
ENDCHAR
STARTCHAR at
ENCODING 64
SWIDTH 908 0
DWIDTH 8 0
BBX 8 8 0 -2
BITMAP
03BFEB40
2E8659E5
997EFA7C
B6D5B83E
A89FF66C
4E41ADE4
07EF3520
00020000
ENDCHAR
STARTCHAR A
ENCODING 65
SWIDTH 765 0
DWIDTH 7 0
BBX 7 7 0 0
BITMAP
00181000
009F7000
02FFE100
08F8F700
1EFBFD00
8FA9AF60
AB000D90
ENDCHAR
STARTCHAR B
ENCODING 66
SWIDTH 646 0
DWIDTH 6 0
BBX 6 7 0 0
BITMAP
599940
AFFFF2
AE05F5
AE5FF3
AE04F8
AF9AF7
8FFEA1
ENDCHAR
STARTCHAR C
ENCODING 67
SWIDTH 679 0
DWIDTH 6 0
BBX 6 8 0 -1
BITMAP
016982
1DFFFC
8F6033
BD0000
9E1000
3FD8B9
04DFE7
000100
ENDCHAR
STARTCHAR D
ENCODING 68
SWIDTH 704 0
DWIDTH 6 0
BBX 7 7 0 0
BITMAP
59972000
AFFFE300
AE03ED00
AE008F10
AE00BE00
AF9CF700
8FFD7000
ENDCHAR
STARTCHAR E
ENCODING 69
SWIDTH 638 0
DWIDTH 6 0
BBX 6 7 0 0
BITMAP
499993
AFFFF6
AE1100
AFFF70
AF8730
AF9993
8FFFF6
ENDCHAR
STARTCHAR F
ENCODING 70
SWIDTH 637 0
DWIDTH 6 0
BBX 6 7 0 0
BITMAP
499993
AFFFF6
AE1100
AFFF70
AF8730
AE0000
8D0000
ENDCHAR
STARTCHAR G
ENCODING 71
SWIDTH 714 0
DWIDTH 6 0
BBX 7 8 0 -1
BITMAP
017A8200
1DFEFB00
8F502200
BD0BFE00
9F24AF10
3FD8CF10
05DFE700
00010000
ENDCHAR
STARTCHAR H
ENCODING 72
SWIDTH 699 0
DWIDTH 6 0
BBX 6 7 0 0
BITMAP
470057
AE00AE
AE00AE
AFEEFE
AF55CE
AE00AE
8D008C
ENDCHAR
STARTCHAR I
ENCODING 73
SWIDTH 257 0
DWIDTH 2 0
BBX 2 7 0 0
BITMAP
47
AE
AE
AE
AE
AE
8D
ENDCHAR
STARTCHAR J
ENCODING 74
SWIDTH 549 0
DWIDTH 5 0
BBX 5 8 0 -1
BITMAP
000740
000F90
000F90
000F90
001F90
ACAF60
5EFA00
001000
ENDCHAR
STARTCHAR K
ENCODING 75
SWIDTH 639 0
DWIDTH 6 0
BBX 6 7 0 0
BITMAP
470191
AE0CF4
AEAF60
AFF700
AFDD20
AE3ED1
8D04E4
ENDCHAR
STARTCHAR L
ENCODING 76
SWIDTH 587 0
DWIDTH 5 0
BBX 5 7 0 0
BITMAP
470000
AE0000
AE0000
AE0000
AE0000
AF5540
8FFFE0
ENDCHAR
STARTCHAR M
ENCODING 77
SWIDTH 870 0
DWIDTH 8 0
BBX 8 7 0 0
BITMAP
47000183
AF800BF7
AFF47FF7
AECEFBF7
AE2ED3F7
AE0212F7
8D0001E6
ENDCHAR
STARTCHAR N
ENCODING 78
SWIDTH 720 0
DWIDTH 6 0
BBX 7 7 0 0
BITMAP
47003800
AF807F20
AFF47F20
AECE8F20
AE2EFF20
AE05FF20
8D009E10
ENDCHAR
STARTCHAR O
ENCODING 79
SWIDTH 775 0
DWIDTH 7 0
BBX 7 8 0 -1
BITMAP
01797100
1DFFFC10
8F506F70
BD000DA0
AE101F90
4FD8DF30
05EFD500
00010000
ENDCHAR
STARTCHAR P
ENCODING 80
SWIDTH 632 0
DWIDTH 6 0
BBX 6 7 0 0
BITMAP
499820
AFFFE1
AE04F6
AF6AF5
AFFFA0
AE3200
8D0000
ENDCHAR
STARTCHAR Q
ENCODING 81
SWIDTH 830 0
DWIDTH 7 0
BBX 8 8 0 -1
BITMAP
01797100
1DFFFC10
8F506F70
BD000DA0
AE101F90
4FD8DFC1
05DFE9E2
00010000
ENDCHAR
STARTCHAR R
ENCODING 82
SWIDTH 631 0
DWIDTH 6 0
BBX 6 7 0 0
BITMAP
499820
AFFFE1
AE04F6
AF69F5
AFFFE0
AE38F4
8D01E6
ENDCHAR
STARTCHAR S
ENCODING 83
SWIDTH 583 0
DWIDTH 5 0
BBX 5 8 0 -1
BITMAP
07A810
7FDF80
9F3200
3EFD50
125DE0
AE7DD0
3DFE40
001000
ENDCHAR
STARTCHAR T
ENCODING 84
SWIDTH 731 0
DWIDTH 7 0
BBX 7 7 0 0
BITMAP
79999930
8BDFBB40
007F1000
007F1000
007F1000
007F1000
006E0000
ENDCHAR
STARTCHAR U
ENCODING 85
SWIDTH 726 0
DWIDTH 7 0
BBX 7 8 0 -1
BITMAP
57002810
AE006F30
AF006F30
AF006F30
8F108F10
3FC9FB00
06EFC200
00010000
ENDCHAR
STARTCHAR V
ENCODING 86
SWIDTH 783 0
DWIDTH 7 0
BBX 7 7 0 0
BITMAP
56000550
BE101EB0
4F706F40
0BD0DC00
04FAF500
00CFC000
004E4000
ENDCHAR
STARTCHAR W
ENCODING 87
SWIDTH 999 0
DWIDTH 9 0
BBX 9 7 0 0
BITMAP
5601810660
BE07F70EB0
6F4CFB4F60
1FBFDFAF10
0BFF4FFA00
05FC0CF500
01D606D100
ENDCHAR
STARTCHAR X
ENCODING 88
SWIDTH 741 0
DWIDTH 7 0
BBX 7 7 0 0
BITMAP
67001A30
AF60BF50
0BFBF700
01EFA000
08FEE300
6FA2EE20
AC103E50
ENDCHAR
STARTCHAR Y
ENCODING 89
SWIDTH 686 0
DWIDTH 6 0
BBX 6 7 0 0
BITMAP
560047
AF31ED
2EC9F3
06FF80
00CE10
00BD00
00AC00
ENDCHAR
STARTCHAR Z
ENCODING 90
SWIDTH 643 0
DWIDTH 6 0
BBX 6 7 0 0
BITMAP
699992
AEEFF5
004FA0
01ED10
0BF400
6FD883
9FFFF7
ENDCHAR
STARTCHAR bracketleft
ENCODING 91
SWIDTH 348 0
DWIDTH 3 0
BBX 3 9 0 -2
BITMAP
8ED0
AD40
AC00
AC00
AC00
AC00
AC00
AD30
9FE0
ENDCHAR
STARTCHAR backslash
ENCODING 92
SWIDTH 528 0
DWIDTH 5 0
BBX 5 8 0 -1
BITMAP
AA0000
8F2000
1E9000
08F200
02F900
009E10
002F70
000520
ENDCHAR
STARTCHAR bracketright
ENCODING 93
SWIDTH 348 0
DWIDTH 3 0
BBX 3 9 0 -2
BITMAP
CEA0
4CC0
0AC0
0AC0
0AC0
0AC0
0AC0
3CC0
CFA0
ENDCHAR
STARTCHAR asciicircum
ENCODING 94
SWIDTH 526 0
DWIDTH 5 0
BBX 5 3 0 2
BITMAP
04B200
4EDD10
571920
ENDCHAR
STARTCHAR underscore
ENCODING 95
SWIDTH 826 0
DWIDTH 7 0
BBX 8 3 0 -3
BITMAP
23333330
CFFFFFF4
01111110
ENDCHAR
STARTCHAR grave
ENCODING 96
SWIDTH 482 0
DWIDTH 4 0
BBX 4 2 0 5
BITMAP
1DA3
06B5
ENDCHAR
STARTCHAR a
ENCODING 97
SWIDTH 596 0
DWIDTH 5 0
BBX 5 5 0 0
BITMAP
07A8A0
7FDFF0
BE0BF0
8FBEF0
1BECE0
ENDCHAR
STARTCHAR b
ENCODING 98
SWIDTH 592 0
DWIDTH 5 0
BBX 6 7 0 0
BITMAP
8C0000
AE0000
AE9910
AFEFB0
AF19F1
AFBED0
8DDD30
ENDCHAR
STARTCHAR c
ENCODING 99
SWIDTH 517 0
DWIDTH 5 0
BBX 5 5 0 0
BITMAP
07B910
7FEF40
BE0100
8FAC20
1AFD30
ENDCHAR
STARTCHAR d
ENCODING 100
SWIDTH 598 0
DWIDTH 5 0
BBX 5 7 0 0
BITMAP
0007D0
0008F0
06ABF0
6FEFF0
AE0AF0
8FAEF0
1AECE0
ENDCHAR
STARTCHAR e
ENCODING 101
SWIDTH 573 0
DWIDTH 5 0
BBX 5 6 0 -1
BITMAP
07CA20
7FBEC0
BFAEC0
9F8840
1CFF80
001100
ENDCHAR
STARTCHAR f
ENCODING 102
SWIDTH 450 0
DWIDTH 4 0
BBX 4 7 0 0
BITMAP
06E9
0ED5
8FD9
AFEA
0F80
0F80
0E70
ENDCHAR
STARTCHAR g
ENCODING 103
SWIDTH 585 0
DWIDTH 5 0
BBX 5 7 0 -2
BITMAP
07A890
7FDFE0
BD0CE0
8FCFE0
19CDE0
2B7EB0
2CFC20
ENDCHAR
STARTCHAR h
ENCODING 104
SWIDTH 605 0
DWIDTH 5 0
BBX 6 7 0 0
BITMAP
8C0000
AE0000
AE8920
AFEFC0
AE18F1
AE07F1
8D06E1
ENDCHAR
STARTCHAR i
ENCODING 105
SWIDTH 255 0
DWIDTH 2 0
BBX 2 7 0 0
BITMAP
8C
57
69
AE
AE
AE
8D
ENDCHAR
STARTCHAR j
ENCODING 106
SWIDTH 252 0
DWIDTH 2 0
BBX 4 9 -2 -2
BITMAP
008C
0057
0069
00AE
00AE
00AE
00AE
18EB
2FC2
ENDCHAR
STARTCHAR k
ENCODING 107
SWIDTH 536 0
DWIDTH 5 0
BBX 5 7 0 0
BITMAP
8C0000
AE0000
AE1600
AECF40
AFF700
AFEE40
8D2D70
ENDCHAR
STARTCHAR l
ENCODING 108
SWIDTH 327 0
DWIDTH 3 0
BBX 3 7 0 0
BITMAP
8C00
AE00
AE00
AE00
AE00
9F50
5EB0
ENDCHAR
STARTCHAR m
ENCODING 109
SWIDTH 851 0
DWIDTH 8 0
BBX 8 5 0 0
BITMAP
69994A60
AFEFFEF2
AF1FA5F4
AE0E94F4
8D0D83F3
ENDCHAR
STARTCHAR n
ENCODING 110
SWIDTH 606 0
DWIDTH 5 0
BBX 6 5 0 0
BITMAP
698920
AFEFC0
AF18F1
AE07F1
8D06E1
ENDCHAR
STARTCHAR o
ENCODING 111
SWIDTH 600 0
DWIDTH 5 0
BBX 6 6 0 -1
BITMAP
07CA20
7FDFD0
BD07F2
9F9DE1
1BFE40
001000
ENDCHAR
STARTCHAR p
ENCODING 112
SWIDTH 582 0
DWIDTH 5 0
BBX 5 7 0 -2
BITMAP
699910
AFEFA0
AF1AE0
AFCEB0
AEBB20
AE0000
9D0000
ENDCHAR
STARTCHAR q
ENCODING 113
SWIDTH 582 0
DWIDTH 5 0
BBX 5 7 0 -2
BITMAP
07A880
7FEFD0
BD0CD0
8FBFD0
19CDD0
000AD0
0009C0
ENDCHAR
STARTCHAR r
ENCODING 114
SWIDTH 457 0
DWIDTH 4 0
BBX 4 5 0 0
BITMAP
6A9A
AFCA
AE00
AE00
8D00
ENDCHAR
STARTCHAR s
ENCODING 115
SWIDTH 489 0
DWIDTH 4 0
BBX 5 6 0 -1
BITMAP
2AC800
8E8700
5FFA00
58BF20
7FFB00
001000
ENDCHAR
STARTCHAR t
ENCODING 116
SWIDTH 449 0
DWIDTH 4 0
BBX 4 7 0 0
BITMAP
0420
0F80
8FD8
AFEA
0F80
0FC4
08E8
ENDCHAR
STARTCHAR u
ENCODING 117
SWIDTH 606 0
DWIDTH 5 0
BBX 6 5 0 0
BITMAP
6904A0
AE07F1
9E08F1
7FBEF1
1AEBE1
ENDCHAR
STARTCHAR v
ENCODING 118
SWIDTH 638 0
DWIDTH 6 0
BBX 6 5 0 0
BITMAP
7800A4
AF26F6
2EADC0
07FF40
00D900
ENDCHAR
STARTCHAR w
ENCODING 119
SWIDTH 793 0
DWIDTH 7 0
BBX 7 5 0 0
BITMAP
871A2590
AE7F9DC0
4FFFFF60
0DF9FE10
06D1C800
ENDCHAR
STARTCHAR x
ENCODING 120
SWIDTH 567 0
DWIDTH 5 0
BBX 5 5 0 0
BITMAP
780680
9FBFA0
0CFD00
6FEF80
AB1AB0
ENDCHAR
STARTCHAR y
ENCODING 121
SWIDTH 604 0
DWIDTH 5 0
BBX 6 8 0 -3
BITMAP
7802B2
9F39F2
1ECFA0
06FF30
01FB00
06F400
09D000
001000
ENDCHAR
STARTCHAR z
ENCODING 122
SWIDTH 586 0
DWIDTH 5 0
BBX 5 5 0 0
BITMAP
5BBB80
6CEFB0
04EB10
5FF980
9FFFE0
ENDCHAR
STARTCHAR braceleft
ENCODING 123
SWIDTH 381 0
DWIDTH 3 0
BBX 4 9 0 -2
BITMAP
05E3
0CA1
0D70
1E60
CF20
2E60
0C70
0C90
06F4
ENDCHAR
STARTCHAR bar
ENCODING 124
SWIDTH 217 0
DWIDTH 2 0
BBX 2 9 0 -2
BITMAP
87
A9
A9
A9
A9
A9
A9
A9
98
ENDCHAR
STARTCHAR braceright
ENCODING 125
SWIDTH 381 0
DWIDTH 3 0
BBX 4 9 0 -2
BITMAP
BA00
4F30
1F40
0F60
0BF4
0E70
1F40
3F30
CC00
ENDCHAR
STARTCHAR asciitilde
ENCODING 126
SWIDTH 651 0
DWIDTH 6 0
BBX 6 3 0 1
BITMAP
045140
5FFEE1
263830
ENDCHAR
STARTCHAR exclamdown
ENCODING 161
SWIDTH 268 0
DWIDTH 2 0
BBX 2 7 0 -2
BITMAP
48
9F
13
9F
9F
9F
8E
ENDCHAR
STARTCHAR cent
ENCODING 162
SWIDTH 434 0
DWIDTH 4 0
BBX 4 7 0 -1
BITMAP
04A0
08D2
8FD8
BA10
6FF8
07C1
0370
ENDCHAR
STARTCHAR sterling
ENCODING 163
SWIDTH 675 0
DWIDTH 6 0
BBX 6 7 0 0
BITMAP
006961
0AFDFA
0F8032
AFEA00
4CD400
0DD775
2FFFFD
ENDCHAR
STARTCHAR currency
ENCODING 164
SWIDTH 677 0
DWIDTH 6 0
BBX 6 7 0 0
BITMAP
88116A
5FFFF6
6F55E7
8C00AA
6F54E7
4FFFF6
98217A
ENDCHAR
STARTCHAR yen
ENCODING 165
SWIDTH 677 0
DWIDTH 6 0
BBX 6 7 0 0
BITMAP
550046
AF21EC
2EBAF3
09FFA0
0AEEB1
0AEEA1
04BC40
ENDCHAR
STARTCHAR brokenbar
ENCODING 166
SWIDTH 215 0
DWIDTH 2 0
BBX 2 9 0 -2
BITMAP
87
A9
A9
98
11
98
A9
A9
98
ENDCHAR
STARTCHAR section
ENCODING 167
SWIDTH 560 0
DWIDTH 5 0
BBX 5 9 0 -2
BITMAP
1ADB20
8F9D30
8F7300
6FFF70
9E1CC0
4FFF90
137EB0
AD7EA0
3CFC20
ENDCHAR
STARTCHAR dieresis
ENCODING 168
SWIDTH 489 0
DWIDTH 4 0
BBX 5 2 0 5
BITMAP
8C2E50
581930
ENDCHAR
STARTCHAR copyright
ENCODING 169
SWIDTH 711 0
DWIDTH 6 0
BBX 7 7 0 0
BITMAP
059A7100
5A787B00
A6C83B10
B7911A20
86BE4C00
1BBAC400
00120000
ENDCHAR
STARTCHAR ordfeminine
ENCODING 170
SWIDTH 445 0
DWIDTH 4 0
BBX 4 4 0 3
BITMAP
0543
8DEA
B8BA
4DD9
ENDCHAR
STARTCHAR guillemotleft
ENCODING 171
SWIDTH 668 0
DWIDTH 6 0
BBX 6 5 0 0
BITMAP
029046
2DC5F8
BE2FB0
4F99F5
04D18A
ENDCHAR
STARTCHAR logicalnot
ENCODING 172
SWIDTH 526 0
DWIDTH 5 0
BBX 5 3 0 1
BITMAP
BEEE80
699D90
000770
ENDCHAR
STARTCHAR registered
ENCODING 174
SWIDTH 711 0
DWIDTH 6 0
BBX 7 7 0 0
BITMAP
059A7100
5AA97B00
A2E98B10
B1FF6A20
85B48C00
1BBAC400
00120000
ENDCHAR
STARTCHAR degree
ENCODING 176
SWIDTH 407 0
DWIDTH 4 0
BBX 4 4 0 3
BITMAP
3CB1
B7B6
8DE3
0420
ENDCHAR
STARTCHAR plusminus
ENCODING 177
SWIDTH 505 0
DWIDTH 5 0
BBX 5 5 0 0
BITMAP
04B000
9EFD30
4AF710
158300
9FFF20
ENDCHAR
STARTCHAR twosuperior
ENCODING 178
SWIDTH 455 0
DWIDTH 4 0
BBX 4 6 0 1
BITMAP
2AA2
ADDA
76CA
4EE5
AFFE
0110
ENDCHAR
STARTCHAR threesuperior
ENCODING 179
SWIDTH 457 0
DWIDTH 4 0
BBX 4 6 0 1
BITMAP
19A2
7CCB
05E9
98AD
5FF7
0110
ENDCHAR
STARTCHAR acute
ENCODING 180
SWIDTH 605 0
DWIDTH 5 0
BBX 3 2 1 5
BITMAP
4AC0
6A50
ENDCHAR
STARTCHAR mu
ENCODING 181
SWIDTH 601 0
DWIDTH 5 0
BBX 6 7 0 -2
BITMAP
6905A0
AE08F1
AE08F1
AFBEF1
AFDBD0
AE0000
8C0000
ENDCHAR
STARTCHAR paragraph
ENCODING 182
SWIDTH 614 0
DWIDTH 6 0
BBX 5 9 0 -3
BITMAP
278870
AFF9F0
AFF5F0
39F5F0
02F5F0
02F5F0
02F5F0
01F4E0
001010
ENDCHAR
STARTCHAR periodcentered
ENCODING 183
SWIDTH 237 0
DWIDTH 2 0
BBX 2 2 0 2
BITMAP
67
BD
ENDCHAR
STARTCHAR cedilla
ENCODING 184
SWIDTH 559 0
DWIDTH 5 0
BBX 3 3 1 -2
BITMAP
0300
3C40
3A10
ENDCHAR
STARTCHAR onesuperior
ENCODING 185
SWIDTH 321 0
DWIDTH 3 0
BBX 3 5 0 2
BITMAP
0740
9F80
5D80
0C80
0B70
ENDCHAR
STARTCHAR ordmasculine
ENCODING 186
SWIDTH 439 0
DWIDTH 4 0
BBX 4 4 0 3
BITMAP
0440
7EE6
B88A
5EE4
ENDCHAR
STARTCHAR guillemotright
ENCODING 187
SWIDTH 669 0
DWIDTH 6 0
BBX 6 5 0 0
BITMAP
650920
8F6CD2
0BF2EC
5F99F5
A81D50
ENDCHAR
STARTCHAR onequarter
ENCODING 188
SWIDTH 786 0
DWIDTH 7 0
BBX 7 8 0 -1
BITMAP
1B409300
5E52B000
0A5A4000
087B9760
00A4F880
03A3EF80
0B200770
02000000
ENDCHAR
STARTCHAR onehalf
ENCODING 189
SWIDTH 804 0
DWIDTH 7 0
BBX 7 8 0 -1
BITMAP
1B409300
5E52B000
0A5A4000
087B9B20
00A6DA70
03A08E30
0B22FF90
02000000
ENDCHAR
STARTCHAR threequarters
ENCODING 190
SWIDTH 842 0
DWIDTH 8 0
BBX 7 8 0 -1
BITMAP
2CB12A00
27E39400
47D6B000
3DCB77B0
003A88F0
00B2AEF0
049000E0
01100000
ENDCHAR
STARTCHAR questiondown
ENCODING 191
SWIDTH 511 0
DWIDTH 5 0
BBX 5 7 0 -2
BITMAP
04B100
05D100
025000
2CE000
AD2400
AD8F60
2CEA00
ENDCHAR
STARTCHAR Agrave
ENCODING 192
SWIDTH 765 0
DWIDTH 7 0
BBX 7 9 0 0
BITMAP
00851000
01BF7000
00191000
009F7000
02FFE100
08F8F700
1EFBFD00
8FA9AF60
AB000D90
ENDCHAR
STARTCHAR Aacute
ENCODING 193
SWIDTH 765 0
DWIDTH 7 0
BBX 7 9 0 0
BITMAP
00279000
008E9000
00181000
009F7000
02FFE100
08F8F700
1EFBFD00
8FA9AF60
AB000D90
ENDCHAR
STARTCHAR Acircumflex
ENCODING 194
SWIDTH 765 0
DWIDTH 7 0
BBX 7 9 0 0
BITMAP
017B7100
03D9D200
00181000
009F7000
02FFE100
08F8F700
1EFBFD00
8FA9AF60
AB000D90
ENDCHAR
STARTCHAR Atilde
ENCODING 195
SWIDTH 765 0
DWIDTH 7 0
BBX 7 9 0 0
BITMAP
01989100
03ABA000
00181000
009F7000
02FFE100
08F8F700
1EFBFD00
8FA9AF60
AB000D90
ENDCHAR
STARTCHAR Adieresis
ENCODING 196
SWIDTH 765 0
DWIDTH 7 0
BBX 7 9 0 0
BITMAP
05A1B400
06C1C500
00181000
009F7000
02FFE100
08F8F700
1EFBFD00
8FA9AF60
AB000D90
ENDCHAR
STARTCHAR Aring
ENCODING 197
SWIDTH 765 0
DWIDTH 7 0
BBX 7 9 0 0
BITMAP
00030000
00977000
007A6000
009F7000
01FFE100
08F8F700
1EFBFD00
8FA9AF60
AB000D90
ENDCHAR
STARTCHAR AE
ENCODING 198
SWIDTH 1148 0
DWIDTH 10 0
BBX 11 7 0 0
BITMAP
000029999800
0001DFFFFE10
001CFF921000
00BF6FFFF100
0AFEAFC77000
9FBAAFC99800
CA000CFFFE10
ENDCHAR
STARTCHAR Ccedilla
ENCODING 199
SWIDTH 679 0
DWIDTH 6 0
BBX 6 9 0 -2
BITMAP
016982
1DFEFC
8F6033
BD0000
9E1000
3FD8BA
04DFD6
001C60
001A30
ENDCHAR
STARTCHAR Egrave
ENCODING 200
SWIDTH 638 0
DWIDTH 6 0
BBX 6 9 0 0
BITMAP
018400
02CF40
499A93
AFFFF6
AE1100
AFFF70
AF8730
AF9993
8FFFF6
ENDCHAR
STARTCHAR Eacute
ENCODING 201
SWIDTH 638 0
DWIDTH 6 0
BBX 6 9 0 0
BITMAP
005A30
02FB30
499993
AFFFF6
AE1100
AFFF70
AF8730
AF9993
8FFFF6
ENDCHAR
STARTCHAR Ecircumflex
ENCODING 202
SWIDTH 638 0
DWIDTH 6 0
BBX 6 9 0 0
BITMAP
04A930
0AAB80
499993
AFFFF6
AE1100
AFFF70
AF8730
AF9993
8FFFF6
ENDCHAR
STARTCHAR Edieresis
ENCODING 203
SWIDTH 638 0
DWIDTH 6 0
BBX 6 9 0 0
BITMAP
0A56A0
0C67B0
499993
AFFFF6
AE1100
AFFF70
AF8730
AF9993
8FFFF6
ENDCHAR
STARTCHAR Igrave
ENCODING 204
SWIDTH 267 0
DWIDTH 2 0
BBX 4 9 -1 0
BITMAP
2830
4DF2
0490
09F0
09F0
09F0
09F0
09F0
07E0
ENDCHAR
STARTCHAR Iacute
ENCODING 205
SWIDTH 269 0
DWIDTH 2 0
BBX 3 9 0 0
BITMAP
3880
AD70
4800
9F00
9F00
9F00
9F00
9F00
7E00
ENDCHAR
STARTCHAR Icircumflex
ENCODING 206
SWIDTH 270 0
DWIDTH 2 0
BBX 4 9 -1 0
BITMAP
28A5
6CAC
0480
09F0
09F0
09F0
09F0
09F0
07E0
ENDCHAR
STARTCHAR Idieresis
ENCODING 207
SWIDTH 268 0
DWIDTH 2 0
BBX 5 9 -1 0
BITMAP
883B20
993C20
048000
08F000
08F000
08F000
08F000
08F000
07E000
ENDCHAR
STARTCHAR Eth
ENCODING 208
SWIDTH 775 0
DWIDTH 7 0
BBX 7 7 0 0
BITMAP
08996000
0FFFFC00
0F907F70
AFE40EA0
3FB12F90
0FDAEF20
0DFEB300
ENDCHAR
STARTCHAR Ntilde
ENCODING 209
SWIDTH 720 0
DWIDTH 6 0
BBX 7 9 0 0
BITMAP
02A79000
059C8000
47003800
AF807F20
AFF47F20
AECE8F20
AE2EFF20
AE05FF20
8D009E10
ENDCHAR
STARTCHAR Ograve
ENCODING 210
SWIDTH 775 0
DWIDTH 7 0
BBX 7 10 0 -1
BITMAP
00851000
00BF8000
017A7100
1DFFFC10
8F506F70
BD000DA0
AE101F90
4FD8DF30
05EFD500
00010000
ENDCHAR
STARTCHAR Oacute
ENCODING 211
SWIDTH 775 0
DWIDTH 7 0
BBX 7 10 0 -1
BITMAP
00279000
008D8000
01797100
1DFFFC10
8F506F70
BD000DA0
AE101F90
4FD8DF30
05EFD500
00010000
ENDCHAR
STARTCHAR Ocircumflex
ENCODING 212
SWIDTH 775 0
DWIDTH 7 0
BBX 7 10 0 -1
BITMAP
017B7100
02D9D200
01797100
1DFFFC10
8F506F70
BD000DA0
AE101F90
4FD8DF30
05EFD500
00010000
ENDCHAR
STARTCHAR Otilde
ENCODING 213
SWIDTH 775 0
DWIDTH 7 0
BBX 7 10 0 -1
BITMAP
007A8400
00B9C200
01797100
1DFFFC10
8F506F70
BD000DA0
AE101F90
4FD8DF30
05EFD500
00010000
ENDCHAR
STARTCHAR Odieresis
ENCODING 214
SWIDTH 775 0
DWIDTH 7 0
BBX 7 10 0 -1
BITMAP
05A1B400
06C1C500
01797100
1DFFFC10
8F506F70
BD000DA0
AE101F90
4FD8DF30
05EFD500
00010000
ENDCHAR
STARTCHAR multiply
ENCODING 215
SWIDTH 521 0
DWIDTH 5 0
BBX 5 5 0 0
BITMAP
330510
9EAF50
1DF900
7FDE30
661920
ENDCHAR
STARTCHAR Oslash
ENCODING 216
SWIDTH 775 0
DWIDTH 7 0
BBX 7 8 0 -1
BITMAP
017AC900
1DFFFD10
8F5AEF80
BD3F7DB0
AEAE2F90
4FFDDF30
0AFFE500
03510000
ENDCHAR
STARTCHAR Ugrave
ENCODING 217
SWIDTH 726 0
DWIDTH 7 0
BBX 7 10 0 -1
BITMAP
04830000
05DF0000
57022810
AE006F30
AF006F30
AF006F30
8F108F10
3FC9FB00
06EFC200
00010000
ENDCHAR
STARTCHAR Uacute
ENCODING 218
SWIDTH 726 0
DWIDTH 7 0
BBX 7 10 0 -1
BITMAP
00279000
008D8000
57002810
AE006F30
AF006F30
AF006F30
8F108F10
3FC9FB00
06EFC200
00010000
ENDCHAR
STARTCHAR Ucircumflex
ENCODING 219
SWIDTH 726 0
DWIDTH 7 0
BBX 7 10 0 -1
BITMAP
017A6000
04D9D100
57002810
AE006F30
AF006F30
AF006F30
8F108F10
3FC9FB00
06EFC200
00010000
ENDCHAR
STARTCHAR Udieresis
ENCODING 220
SWIDTH 726 0
DWIDTH 7 0
BBX 7 10 0 -1
BITMAP
0783B200
08A3C300
57002810
AE006F30
AF006F30
AF006F30
8F108F10
3FC9FB00
06EFC200
00010000
ENDCHAR
STARTCHAR Yacute
ENCODING 221
SWIDTH 686 0
DWIDTH 6 0
BBX 6 9 0 0
BITMAP
004950
00EC40
560047
AF31ED
2EC9F3
06FF80
00CE10
00BD00
00AC00
ENDCHAR
STARTCHAR Thorn
ENCODING 222
SWIDTH 634 0
DWIDTH 6 0
BBX 6 7 0 0
BITMAP
470000
AFA930
AFEFE2
AE03F6
AF8BF4
AFFF80
8D1000
ENDCHAR
STARTCHAR germandbls
ENCODING 223
SWIDTH 633 0
DWIDTH 6 0
BBX 6 8 0 -1
BITMAP
18BA30
8FAE90
AE4F50
AE6F30
AE1AF3
AE47F6
9E8FD2
230000
ENDCHAR
STARTCHAR agrave
ENCODING 224
SWIDTH 596 0
DWIDTH 5 0
BBX 5 7 0 0
BITMAP
06C800
028C00
07A8A0
7FDFF0
BE0BF0
8FBEF0
1BECE0
ENDCHAR
STARTCHAR aacute
ENCODING 225
SWIDTH 596 0
DWIDTH 5 0
BBX 5 7 0 0
BITMAP
029D20
03C710
07A8A0
7FDFF0
BE0BF0
8FBEF0
1BECE0
ENDCHAR
STARTCHAR acircumflex
ENCODING 226
SWIDTH 596 0
DWIDTH 5 0
BBX 5 7 0 0
BITMAP
07DC50
078860
07A8A0
7FDFF0
BE0BF0
8FBEF0
1BECE0
ENDCHAR
STARTCHAR atilde
ENCODING 227
SWIDTH 596 0
DWIDTH 5 0
BBX 5 7 0 0
BITMAP
07DA80
065930
07A8A0
7FDFF0
BE0BF0
8FBEF0
1BECE0
ENDCHAR
STARTCHAR adieresis
ENCODING 228
SWIDTH 596 0
DWIDTH 5 0
BBX 5 7 0 0
BITMAP
1D68C0
094580
07A8A0
7FDFF0
BE0BF0
8FBEF0
1BECE0
ENDCHAR
STARTCHAR aring
ENCODING 229
SWIDTH 596 0
DWIDTH 5 0
BBX 5 7 0 0
BITMAP
007600
009800
07A8A0
7FDFF0
BE0BF0
8FBEF0
1BECE0
ENDCHAR
STARTCHAR ae
ENCODING 230
SWIDTH 910 0
DWIDTH 8 0
BBX 8 6 0 -1
BITMAP
29C86BA2
8FBFFBDC
297DFADD
BC6EF884
7FF9AFE8
01000000
ENDCHAR
STARTCHAR ccedilla
ENCODING 231
SWIDTH 524 0
DWIDTH 5 0
BBX 5 7 0 -2
BITMAP
07CA20
7FEF50
BE0100
9FAC30
1BFE30
01C700
01A300
ENDCHAR
STARTCHAR egrave
ENCODING 232
SWIDTH 573 0
DWIDTH 5 0
BBX 5 8 0 -1
BITMAP
09B600
039A00
07CA20
7FBEC0
BFAEC0
9F8840
1CFF80
001100
ENDCHAR
STARTCHAR eacute
ENCODING 233
SWIDTH 573 0
DWIDTH 5 0
BBX 5 8 0 -1
BITMAP
029D10
04B600
07CA20
7FBEC0
BFAEC0
9F8840
1CFF80
001100
ENDCHAR
STARTCHAR ecircumflex
ENCODING 234
SWIDTH 573 0
DWIDTH 5 0
BBX 5 8 0 -1
BITMAP
19DB30
0A7A30
07CA20
7FBEC0
BFAEC0
9F8840
1CFF80
001100
ENDCHAR
STARTCHAR edieresis
ENCODING 235
SWIDTH 573 0
DWIDTH 5 0
BBX 5 8 0 -1
BITMAP
5E2D70
391850
07CA20
7FBEC0
BFAEC0
9F8840
1CFF80
001100
ENDCHAR
STARTCHAR igrave
ENCODING 236
SWIDTH 255 0
DWIDTH 2 0
BBX 4 7 -1 0
BITMAP
4D81
28C1
0690
0AE0
0AE0
0AE0
08D0
ENDCHAR
STARTCHAR iacute
ENCODING 237
SWIDTH 255 0
DWIDTH 2 0
BBX 3 7 0 0
BITMAP
5B90
9940
6900
AE00
AE00
AE00
8D00
ENDCHAR
STARTCHAR icircumflex
ENCODING 238
SWIDTH 255 0
DWIDTH 2 0
BBX 4 7 -1 0
BITMAP
4CD8
5978
0690
0AE0
0AE0
0AE0
08D0
ENDCHAR
STARTCHAR idieresis
ENCODING 239
SWIDTH 255 0
DWIDTH 2 0
BBX 5 7 -1 0
BITMAP
B95E20
763910
069000
09E000
09E000
09E000
08D000
ENDCHAR
STARTCHAR eth
ENCODING 240
SWIDTH 585 0
DWIDTH 5 0
BBX 5 8 0 0
BITMAP
000100
06D700
06DE20
059CA0
6FEFE0
BD09F0
9F8DC0
1BFD30
ENDCHAR
STARTCHAR ntilde
ENCODING 241
SWIDTH 606 0
DWIDTH 5 0
BBX 6 7 0 0
BITMAP
0ADB60
086910
698920
AFEFC0
AF18F1
AE07F1
8D06E1
ENDCHAR
STARTCHAR ograve
ENCODING 242
SWIDTH 600 0
DWIDTH 5 0
BBX 6 8 0 -1
BITMAP
07C700
039B00
07CA20
7FDFD0
BD07F2
9F9DE1
1BFE40
001000
ENDCHAR
STARTCHAR oacute
ENCODING 243
SWIDTH 600 0
DWIDTH 5 0
BBX 6 8 0 -1
BITMAP
029D20
04B710
07CA20
7FDFD0
BD07F2
9F9DE1
1BFE40
001000
ENDCHAR
STARTCHAR ocircumflex
ENCODING 244
SWIDTH 600 0
DWIDTH 5 0
BBX 6 8 0 -1
BITMAP
09DB30
097940
07CA20
7FDFD0
BD07F2
9F9DE1
1BFE40
001000
ENDCHAR
STARTCHAR otilde
ENCODING 245
SWIDTH 600 0
DWIDTH 5 0
BBX 6 8 0 -1
BITMAP
0ADB50
086910
07CA20
7FDFD0
BD07F2
9F9DE1
1BFE40
001000
ENDCHAR
STARTCHAR odieresis
ENCODING 246
SWIDTH 600 0
DWIDTH 5 0
BBX 6 8 0 -1
BITMAP
4E2C80
291850
07CA20
7FDFD0
BD07F2
9F9DE1
1BFE40
001000
ENDCHAR
STARTCHAR divide
ENCODING 247
SWIDTH 503 0
DWIDTH 5 0
BBX 5 5 0 0
BITMAP
05C000
149100
BFFF40
158300
06D000
ENDCHAR
STARTCHAR oslash
ENCODING 248
SWIDTH 600 0
DWIDTH 5 0
BBX 6 9 0 -2
BITMAP
000100
0009C0
07CF80
7FDFD0
BD07F2
9F9DE1
2FFE50
7F3000
140000
ENDCHAR
STARTCHAR ugrave
ENCODING 249
SWIDTH 606 0
DWIDTH 5 0
BBX 6 7 0 0
BITMAP
07C700
039B00
6904A0
AE07F1
9E08F1
7FBEF1
1AEBE1
ENDCHAR
STARTCHAR uacute
ENCODING 250
SWIDTH 606 0
DWIDTH 5 0
BBX 6 7 0 0
BITMAP
018D30
02C710
6904A0
AE07F1
9E08F1
7FBEF1
1AEBE1
ENDCHAR
STARTCHAR ucircumflex
ENCODING 251
SWIDTH 606 0
DWIDTH 5 0
BBX 6 7 0 0
BITMAP
08DB40
097940
6904A0
AE07F1
9E08F1
7FBEF1
1AEBE1
ENDCHAR
STARTCHAR udieresis
ENCODING 252
SWIDTH 606 0
DWIDTH 5 0
BBX 6 7 0 0
BITMAP
3E3B90
292760
6904A0
AE07F1
9E08F1
7FBEF1
1AEBE1
ENDCHAR
STARTCHAR yacute
ENCODING 253
SWIDTH 604 0
DWIDTH 5 0
BBX 6 10 0 -3
BITMAP
019D30
02C710
7802B2
9F39F2
1ECFA0
06FF30
01FB00
06F400
09D000
001000
ENDCHAR
STARTCHAR thorn
ENCODING 254
SWIDTH 580 0
DWIDTH 5 0
BBX 5 9 0 -2
BITMAP
9C0000
AC0000
ADA810
AFEFA0
AE0AE0
AFAEC0
AEEC20
AC0000
9B0000
ENDCHAR
STARTCHAR ydieresis
ENCODING 255
SWIDTH 604 0
DWIDTH 5 0
BBX 6 10 0 -3
BITMAP
2E4AA0
193670
7802B2
9F39F2
1ECFA0
06FF30
01FB00
06F400
09D000
001000
ENDCHAR
STARTCHAR dotlessi
ENCODING 305
SWIDTH 255 0
DWIDTH 2 0
BBX 2 5 0 0
BITMAP
69
AE
AE
AE
8D
ENDCHAR
STARTCHAR Lslash
ENCODING 321
SWIDTH 687 0
DWIDTH 6 0
BBX 6 7 0 0
BITMAP
056000
0BD000
0BE600
7EFB10
5DD000
0BE554
0AFFFD
ENDCHAR
STARTCHAR lslash
ENCODING 322
SWIDTH 468 0
DWIDTH 4 0
BBX 4 7 0 0
BITMAP
0BA0
0CC0
0CD6
8EFB
5DC0
0CE4
07E8
ENDCHAR
STARTCHAR OE
ENCODING 338
SWIDTH 1092 0
DWIDTH 10 0
BBX 10 7 0 0
BITMAP
0169999994
1DFFFFFFF8
8F608F2100
BD008FFF80
9E108F8730
3FD9CF9994
04CFFFFFF8
ENDCHAR
STARTCHAR oe
ENCODING 339
SWIDTH 944 0
DWIDTH 9 0
BBX 9 6 0 -1
BITMAP
07CA5AB500
7FDFFDCF20
BD07FCCF20
9F9DFB7700
1BFE9EFC00
0010000000
ENDCHAR
STARTCHAR Scaron
ENCODING 352
SWIDTH 583 0
DWIDTH 5 0
BBX 5 10 0 -1
BITMAP
1A7A20
19DA20
07A810
7FDF80
9F3200
3EFD50
125DE0
AE7DD0
3DFE40
001000
ENDCHAR
STARTCHAR scaron
ENCODING 353
SWIDTH 489 0
DWIDTH 4 0
BBX 5 8 0 -1
BITMAP
8CBA00
39A400
2AC800
8E8700
5FFA00
58BF20
7FFB00
001000
ENDCHAR
STARTCHAR Ydieresis
ENCODING 376
SWIDTH 686 0
DWIDTH 6 0
BBX 6 9 0 0
BITMAP
0965B1
0B75C1
560047
AF31ED
2EC9F3
06FF80
00CE10
00BD00
00AC00
ENDCHAR
STARTCHAR Zcaron
ENCODING 381
SWIDTH 643 0
DWIDTH 6 0
BBX 6 9 0 0
BITMAP
087950
07DC50
699992
AEEFF5
004FA0
01ED10
0BF400
6FD883
9FFFF7
ENDCHAR
STARTCHAR zcaron
ENCODING 382
SWIDTH 586 0
DWIDTH 5 0
BBX 5 7 0 0
BITMAP
0DAD50
05A820
5BBB80
6CEFB0
04EB10
5FF980
9FFFE0
ENDCHAR
STARTCHAR florin
ENCODING 402
SWIDTH 529 0
DWIDTH 5 0
BBX 5 9 0 -2
BITMAP
002950
00EE60
18FA30
4FFF80
07F300
08F000
0AE000
5DB000
ED3000
ENDCHAR
STARTCHAR circumflex
ENCODING 710
SWIDTH 603 0
DWIDTH 5 0
BBX 4 2 1 5
BITMAP
9DB3
9794
ENDCHAR
STARTCHAR caron
ENCODING 711
SWIDTH 600 0
DWIDTH 5 0
BBX 4 2 1 5
BITMAP
DAD5
5A82
ENDCHAR
STARTCHAR dotaccent
ENCODING 729
SWIDTH 285 0
DWIDTH 3 0
BBX 3 2 0 6
BITMAP
5D10
4900
ENDCHAR
STARTCHAR ring
ENCODING 730
SWIDTH 378 0
DWIDTH 3 0
BBX 3 3 0 6
BITMAP
0310
58A0
3A80
ENDCHAR
STARTCHAR ogonek
ENCODING 731
SWIDTH 570 0
DWIDTH 5 0
BBX 3 3 1 -2
BITMAP
0300
5C20
2A20
ENDCHAR
STARTCHAR tilde
ENCODING 732
SWIDTH 584 0
DWIDTH 5 0
BBX 5 2 0 5
BITMAP
1CCC20
177800
ENDCHAR
STARTCHAR endash
ENCODING 8211
SWIDTH 561 0
DWIDTH 5 0
BBX 5 3 0 1
BITMAP
233320
CFFFD0
244430
ENDCHAR
STARTCHAR emdash
ENCODING 8212
SWIDTH 693 0
DWIDTH 6 0
BBX 7 3 0 1
BITMAP
23333200
CFFFFF10
24444300
ENDCHAR
STARTCHAR quoteleft
ENCODING 8216
SWIDTH 237 0
DWIDTH 2 0
BBX 2 4 0 3
BITMAP
17
87
BD
56
ENDCHAR
STARTCHAR quoteright
ENCODING 8217
SWIDTH 237 0
DWIDTH 2 0
BBX 2 4 0 3
BITMAP
56
BD
5A
51
ENDCHAR
STARTCHAR quotesinglbase
ENCODING 8218
SWIDTH 237 0
DWIDTH 2 0
BBX 2 4 0 -2
BITMAP
67
AD
69
41
ENDCHAR
STARTCHAR quotedblleft
ENCODING 8220
SWIDTH 482 0
DWIDTH 4 0
BBX 5 4 0 3
BITMAP
170710
875A00
BD8F10
563700
ENDCHAR
STARTCHAR quotedblright
ENCODING 8221
SWIDTH 482 0
DWIDTH 4 0
BBX 5 4 0 3
BITMAP
564800
BD8F10
5A2D00
514200
ENDCHAR
STARTCHAR quotedblbase
ENCODING 8222
SWIDTH 482 0
DWIDTH 4 0
BBX 5 4 0 -2
BITMAP
674900
AD7F10
693C00
413100
ENDCHAR
STARTCHAR dagger
ENCODING 8224
SWIDTH 527 0
DWIDTH 5 0
BBX 5 9 0 -2
BITMAP
03A100
06F200
7BFA40
9DFC60
06F200
06F200
06F200
06F200
03A100
ENDCHAR
STARTCHAR daggerdbl
ENCODING 8225
SWIDTH 527 0
DWIDTH 5 0
BBX 5 9 0 -2
BITMAP
03A100
06F200
7BFA40
9DFC60
06F200
ADFD60
6BFA40
06F200
03A100
ENDCHAR
STARTCHAR bullet
ENCODING 8226
SWIDTH 342 0
DWIDTH 3 0
BBX 3 4 0 1
BITMAP
0200
9FA0
BFC0
2620
ENDCHAR
STARTCHAR ellipsis
ENCODING 8230
SWIDTH 911 0
DWIDTH 8 0
BBX 8 2 0 0
BITMAP
67068068
AC09C09D
ENDCHAR
STARTCHAR perthousand
ENCODING 8240
SWIDTH 1223 0
DWIDTH 11 0
BBX 11 8 0 -1
BITMAP
18701B000000
8BD485000000
8AC6C0000000
2A9A44203400
002B9DE4ED70
00A3C5D8B790
03A06EB1CE40
011000000000
ENDCHAR
STARTCHAR guilsinglleft
ENCODING 8249
SWIDTH 383 0
DWIDTH 3 0
BBX 4 5 0 0
BITMAP
02A1
2DE2
BF40
4FC1
04E2
ENDCHAR
STARTCHAR guilsinglright
ENCODING 8250
SWIDTH 383 0
DWIDTH 3 0
BBX 4 5 0 0
BITMAP
6600
9F60
0CF3
6FA0
AA00
ENDCHAR
STARTCHAR fraction
ENCODING 8260
SWIDTH 433 0
DWIDTH 4 0
BBX 5 8 0 -1
BITMAP
000480
000C20
005800
00C100
067000
1C1000
760000
200000
ENDCHAR
STARTCHAR Euro
ENCODING 8364
SWIDTH 612 0
DWIDTH 6 0
BBX 6 7 0 0
BITMAP
02BEE3
0BFAA2
8FEA70
6FB740
9FEB80
0BE981
02BFE3
ENDCHAR
STARTCHAR trademark
ENCODING 8482
SWIDTH 840 0
DWIDTH 8 0
BBX 8 4 0 2
BITMAP
9BB68091
4D96FCF3
0C55EEE3
0A4490B2
ENDCHAR
STARTCHAR minus
ENCODING 8722
SWIDTH 581 0
DWIDTH 5 0
BBX 5 3 0 1
BITMAP
133320
BFFFF0
244430
ENDCHAR
STARTCHAR f_f
ENCODING 64256
SWIDTH 803 0
DWIDTH 7 0
BBX 7 7 0 0
BITMAP
06E94DB0
0ED4CE60
8FDBEEA0
AFEDFEC0
0F80DB00
0F80DB00
0E70C900
ENDCHAR
STARTCHAR fi
ENCODING 64257
SWIDTH 709 0
DWIDTH 6 0
BBX 6 7 0 0
BITMAP
06E97D
0ED548
8FD95A
AFEA8F
0F808F
0F808F
0E707E
ENDCHAR
STARTCHAR fl
ENCODING 64258
SWIDTH 774 0
DWIDTH 7 0
BBX 7 7 0 0
BITMAP
06E98D00
0ED59E00
8FD99E00
AFEA9E00
0F809E00
0F809F60
0E704EB0
ENDCHAR
STARTCHAR f_f_i
ENCODING 64259
SWIDTH 1059 0
DWIDTH 10 0
BBX 10 7 0 0
BITMAP
06E94DB4D2
0ED4CE6391
8FDBEEA3A1
AFEDFEC6F3
0F80DB06F3
0F80DB06F3
0E70C905E2
ENDCHAR
STARTCHAR .notdef
ENCODING -1
SWIDTH 500 0
DWIDTH 5 0
BBX 1 1 0 0
BITMAP
00
ENDCHAR
STARTCHAR .null
ENCODING -1
SWIDTH 0 0
DWIDTH 0 0
BBX 1 1 0 0
BITMAP
00
ENDCHAR
STARTCHAR nonmarkingreturn
ENCODING -1
SWIDTH 333 0
DWIDTH 3 0
BBX 1 1 0 0
BITMAP
00
ENDCHAR
STARTCHAR f_t
ENCODING -1
SWIDTH 814 0
DWIDTH 7 0
BBX 8 7 0 0
BITMAP
06E93300
0ED4BC00
8FDBEEA1
AFEDEFC1
0F80BC00
0F80AE60
0E703DD0
ENDCHAR
STARTCHAR t_t
ENCODING -1
SWIDTH 794 0
DWIDTH 7 0
BBX 7 7 0 0
BITMAP
04204200
0F80E900
8FDBFDA0
AFEDFEC0
0F80EA00
0FC4DD40
07E86EA0
ENDCHAR
STARTCHAR l_l
ENCODING -1
SWIDTH 626 0
DWIDTH 6 0
BBX 6 7 0 0
BITMAP
8C2E40
AE3F50
AE3F50
AE3F50
AE3F50
9F6FB3
4E79E6
ENDCHAR
STARTCHAR j_j
ENCODING -1
SWIDTH 521 0
DWIDTH 5 0
BBX 7 10 -2 -3
BITMAP
007B2D30
00571920
00681A20
00AE3F50
00AE3F50
00AE3F50
00AE3F50
07EB8F40
2FD4FC00
01001000
ENDCHAR
ENDFONT
